<?xml version="1.0" encoding="utf-8"?>
<!-- Generator: Adobe Illustrator 26.1.0, SVG Export Plug-In . SVG Version: 6.00 Build 0)  -->
<svg version="1.1" id="Layer_1" xmlns="http://www.w3.org/2000/svg" xmlns:xlink="http://www.w3.org/1999/xlink" x="0px" y="0px"
	 viewBox="0 0 650 447" style="enable-background:new 0 0 650 447;" xml:space="preserve">
<style type="text/css">
	.st0{fill:#FFFFFF;}
</style>
<g>
	<g>
		<path class="st0" d="M408.25-0.02c24.94,0,49.14,0,74.45,0c-11.57,44.21-23.05,88.07-34.66,132.41
			c16.76,20.33,33.73,40.91,51.38,62.32c-23.14,0-45.24,0-67.68,0c-8.36,31.93-16.58,63.33-24.94,95.25c30.9,0,61.12,0,92.68,0
			c-17.6,21.34-34.54,41.88-51.31,62.23c-44.12,0-87.72,0-132.06,0C346.86,234.64,377.51,117.48,408.25-0.02z"/>
		<path class="st0" d="M559.47,352.3c-30.25,0-59.79,0-90.7,0c30.4-36.92,60.25-73.16,90.48-109.87
			c-29.94-36.32-59.94-72.72-90.44-109.73c30.5,0,60.12,0,90.74,0c29.77,36.11,59.99,72.78,90.45,109.73
			C619.74,279.16,589.61,315.72,559.47,352.3z"/>
		<path class="st0" d="M90.39,352.12C60.45,315.79,30.32,279.23,0,242.44c30.31-36.78,60.43-73.34,90.56-109.9
			c29.99,0,59.69,0,90.65,0c-30.42,36.96-60.36,73.33-90.46,109.9c30.02,36.46,59.92,72.78,90.31,109.68
			C150.61,352.12,120.98,352.12,90.39,352.12z"/>
	</g>
	<path class="st0" d="M335.75,132.45c-44.94,0-89.34,0-134.03,0c-16.85,20.44-33.76,40.94-51.38,62.31c32.06,0,62.76,0,94.07,0
		c-8.6,31.84-17.15,63.47-25.7,95.1l-0.05,0c-0.45,1.67-0.9,3.34-1.35,5c-13.77,50.94-27.4,101.38-41.12,152.15
		c24.96,0,49.32,0,74.4,0c14.05-51.88,28.06-103.64,42.08-155.43l0,0C307.03,238.54,321.37,185.57,335.75,132.45z"/>
</g>
</svg>
