<?xml version="1.0" encoding="utf-8"?>
<!-- Generator: Adobe Illustrator 26.1.0, SVG Export Plug-In . SVG Version: 6.00 Build 0)  -->
<svg version="1.1" id="Layer_1" xmlns="http://www.w3.org/2000/svg" xmlns:xlink="http://www.w3.org/1999/xlink" x="0px" y="0px"
	 viewBox="0 0 32 32" style="enable-background:new 0 0 32 32;" xml:space="preserve">
<style type="text/css">
	.st0{fill:#4EE1A0;}
</style>
<g>
	<g>
		<path class="st0" d="M19.92,5.48c1.17,0,2.31,0,3.51,0c-0.54,2.08-1.09,4.15-1.63,6.23c0.79,0.96,1.59,1.93,2.42,2.93
			c-1.09,0-2.13,0-3.19,0c-0.39,1.5-0.78,2.98-1.17,4.49c1.46,0,2.88,0,4.36,0c-0.83,1-1.63,1.97-2.42,2.93c-2.08,0-4.13,0-6.22,0
			C17.03,16.52,18.47,11.01,19.92,5.48z"/>
		<path class="st0" d="M27.04,22.07c-1.42,0-2.82,0-4.27,0c1.43-1.74,2.84-3.44,4.26-5.17c-1.41-1.71-2.82-3.42-4.26-5.17
			c1.44,0,2.83,0,4.27,0c1.4,1.7,2.82,3.43,4.26,5.17C29.88,18.62,28.46,20.34,27.04,22.07z"/>
		<path class="st0" d="M4.95,22.06c-1.41-1.71-2.83-3.43-4.26-5.16c1.43-1.73,2.85-3.45,4.26-5.17c1.41,0,2.81,0,4.27,0
			c-1.43,1.74-2.84,3.45-4.26,5.17c1.41,1.72,2.82,3.43,4.25,5.16C7.79,22.06,6.39,22.06,4.95,22.06z"/>
	</g>
	<path class="st0" d="M16.51,11.71c-2.12,0-4.21,0-6.31,0c-0.79,0.96-1.59,1.93-2.42,2.93c1.51,0,2.96,0,4.43,0
		c-0.4,1.5-0.81,2.99-1.21,4.48h0c-0.02,0.08-0.04,0.16-0.06,0.24c-0.65,2.4-1.29,4.77-1.94,7.16c1.18,0,2.32,0,3.5,0
		c0.66-2.44,1.32-4.88,1.98-7.32l0,0C15.15,16.71,15.83,14.21,16.51,11.71z"/>
</g>
</svg>
