<?xml version="1.0" encoding="utf-8"?>
<!-- Generator: Adobe Illustrator 26.1.0, SVG Export Plug-In . SVG Version: 6.00 Build 0)  -->
<svg version="1.1" id="Layer_1" xmlns="http://www.w3.org/2000/svg" xmlns:xlink="http://www.w3.org/1999/xlink" x="0px" y="0px"
	 viewBox="0 0 32 32" style="enable-background:new 0 0 32 32;" xml:space="preserve">
<style type="text/css">
	.st0{fill:#4EE1A0;}
</style>
<g>
	<g>
		<path class="st0" d="M20.1,5c1.2,0,2.4,0,3.7,0c-0.6,2.2-1.1,4.3-1.7,6.5c0.8,1,1.7,2,2.5,3.1c-1.1,0-2.2,0-3.3,0
			c-0.4,1.6-0.8,3.1-1.2,4.7c1.5,0,3,0,4.6,0c-0.9,1-1.7,2.1-2.5,3.1c-2.2,0-4.3,0-6.5,0C17.1,16.6,18.6,10.8,20.1,5z"/>
		<path class="st0" d="M27.6,22.4c-1.5,0-2.9,0-4.5,0c1.5-1.8,3-3.6,4.4-5.4c-1.5-1.8-2.9-3.6-4.4-5.4c1.5,0,3,0,4.5,0
			c1.5,1.8,2.9,3.6,4.4,5.4C30.5,18.8,29,20.5,27.6,22.4z"/>
		<path class="st0" d="M4.5,22.3C3,20.6,1.5,18.8,0,17c1.5-1.8,3-3.6,4.4-5.4c1.5,0,2.9,0,4.5,0c-1.5,1.8-3,3.6-4.4,5.4
			c1.5,1.8,2.9,3.6,4.4,5.4C7.5,22.3,6,22.3,4.5,22.3z"/>
	</g>
	<path class="st0" d="M16.6,11.5c-2.2,0-4.4,0-6.6,0c-0.8,1-1.7,2-2.5,3.1c1.6,0,3.1,0,4.6,0c-0.4,1.6-0.8,3.1-1.3,4.7l0,0
		c0,0.1,0,0.2-0.1,0.3c-0.7,2.5-1.3,5-2,7.5c1.2,0,2.4,0,3.7,0c0.7-2.5,1.4-5.1,2.1-7.6l0,0C15.1,16.8,15.9,14.2,16.6,11.5z"/>
</g>
</svg>
